<svg width="20" height="20" viewBox="0 0 18 18" fill="none" xmlns="http://www.w3.org/2000/svg">
<path d="M9.47284 1.49421C10.1009 0.907164 11.069 0.710507 11.8162 1.13565C12.0359 1.26063 12.2423 1.40385 12.4192 1.58076C12.5962 1.75768 12.7394 1.96413 12.8644 2.18379C13.2895 2.931 13.0928 3.89911 12.5058 4.52716C12.3514 4.69235 12.1963 4.85854 12.0404 5.02558C11.6458 5.44836 11.2462 5.87657 10.84 6.30768C10.474 6.69628 10.474 7.30372 10.84 7.69232C11.2461 8.12342 11.6458 8.55162 12.0404 8.97439C12.1963 9.14144 12.3514 9.30764 12.5058 9.47284C13.0928 10.1009 13.2895 11.069 12.8644 11.8162C12.7394 12.0359 12.5962 12.2423 12.4192 12.4192C12.2423 12.5962 12.0359 12.7394 11.8162 12.8644C11.069 13.2895 10.1009 13.0928 9.47284 12.5058C9.30765 12.3514 9.14146 12.1963 8.97442 12.0404C8.55164 11.6458 8.12343 11.2462 7.69232 10.84C7.30372 10.474 6.69628 10.474 6.30768 10.84C5.87659 11.2461 5.44841 11.6458 5.02565 12.0403C4.85859 12.1962 4.69238 12.3514 4.52717 12.5058C3.89911 13.0928 2.93101 13.2895 2.18379 12.8643C1.96413 12.7394 1.75768 12.5961 1.58077 12.4192C1.40385 12.2423 1.26063 12.0359 1.13565 11.8162C0.71051 11.069 0.907167 10.1009 1.49421 9.47283C1.64862 9.30764 1.80373 9.14144 1.95963 8.9744C2.35421 8.55162 2.75385 8.12342 3.15996 7.69232C3.52604 7.30372 3.52604 6.69628 3.15996 6.30767C2.75388 5.8766 2.35427 5.44843 1.95971 5.02568C1.80378 4.85861 1.64865 4.69239 1.49421 4.52716C0.907167 3.89911 0.71051 2.931 1.13565 2.18379C1.26063 1.96413 1.40385 1.75768 1.58077 1.58076C1.75768 1.40385 1.96413 1.26063 2.1838 1.13565C2.93101 0.710508 3.89912 0.907164 4.52717 1.49421C4.69236 1.64862 4.85856 1.80373 5.0256 1.95963C5.44838 2.35421 5.87657 2.75385 6.30768 3.15996C6.69628 3.52604 7.30372 3.52604 7.69232 3.15996C8.12342 2.75385 8.55162 2.35422 8.97439 1.95964C9.14144 1.80374 9.30764 1.64862 9.47284 1.49421Z" stroke="white" stroke-width="1" stroke-linejoin="round"/>
</svg>
